# xmcd
#
# Track frame offsets:
#	150
#	18202
#	31882
#	44415
#	50223
#	58920
#	66913
#	72608
#
# Disc length: 1120 seconds
#
# Revision: 0
# Processed by: cddbd v1.5.1PL2 Copyright (c) Steve Scherf et al.
# Submitted via: dBpowerAMP V4.0
#
DISCID=78045e08
DTITLE=Willie Nelson - Crazy
DYEAR=1900
DGENRE=Country
TTITLE0=Crazy
TTITLE1=A Moment Isn't Very Long
TTITLE2=Half a Man
TTITLE3=I've Just Destroyed The World
TTITLE4=Save Your Tears
TTITLE5=Things To Remember
TTITLE6=Three Days
TTITLE7=Just Out Of Reach (Duet with Patsy Cline)
EXTD=
EXTT0=
EXTT1=
EXTT2=
EXTT3=
EXTT4=
EXTT5=
EXTT6=
EXTT7=
PLAYORDER=
